<svg width="512" height="512" viewBox="0 0 512 512" fill="none" xmlns="http://www.w3.org/2000/svg">
  <defs>
    <linearGradient id="bg" x1="70" y1="64" x2="442" y2="456" gradientUnits="userSpaceOnUse">
      <stop stop-color="#0B8A82"/>
      <stop offset="1" stop-color="#111827"/>
    </linearGradient>
    <linearGradient id="stroke" x1="122" y1="108" x2="394" y2="406" gradientUnits="userSpaceOnUse">
      <stop stop-color="#F8FAFC"/>
      <stop offset="1" stop-color="#D1FAE5"/>
    </linearGradient>
  </defs>

  <rect x="34" y="34" width="444" height="444" rx="112" fill="url(#bg)"/>
  <rect x="56" y="56" width="400" height="400" rx="94" stroke="white" stroke-opacity="0.22" stroke-width="4"/>

  <path d="M148 156H248C292 156 324 186 324 228C324 262 304 288 272 298L328 356H276L230 307H206V356H148V156ZM206 258H238C256 258 266 248 266 232C266 216 256 208 238 208H206V258Z" fill="url(#stroke)"/>
  <path d="M264 156H364C408 156 440 186 440 228C440 262 420 288 388 298L444 356H392L346 307H322V356H264V156ZM322 258H354C372 258 382 248 382 232C382 216 372 208 354 208H322V258Z" fill="url(#stroke)"/>

  <text x="256" y="428" fill="#E2E8F0" font-family="Arial, sans-serif" font-size="34" font-weight="700" text-anchor="middle" letter-spacing="2">RR LUXURY PG</text>
</svg>
